<?xml version="1.0" encoding="UTF-8"?>
<svg width="192" height="192" viewBox="0 0 192 192" fill="none" xmlns="http://www.w3.org/2000/svg">
    <rect width="192" height="192" rx="48" fill="#E1306C"/>
    <path d="M96 64C78.32 64 64 78.32 64 96C64 113.68 78.32 128 96 128C113.68 128 128 113.68 128 96C128 78.32 113.68 64 96 64ZM96 116C85.176 116 76 106.824 76 96C76 85.176 85.176 76 96 76C106.824 76 116 85.176 116 96C116 106.824 106.824 116 96 116Z" fill="white"/>
    <circle cx="128" cy="64" r="8" fill="white"/>
    <path d="M132 40H60C48.952 40 40 48.952 40 60V132C40 143.048 48.952 152 60 152H132C143.048 152 152 143.048 152 132V60C152 48.952 143.048 40 132 40ZM140 132C140 136.416 136.416 140 132 140H60C55.584 140 52 136.416 52 132V60C52 55.584 55.584 52 60 52H132C136.416 52 140 55.584 140 60V132Z" fill="white"/>
</svg> 